<?xml version="1.0" encoding="iso-8859-1"?>
<!-- Uploaded to: SVG Repo, www.svgrepo.com, Generator: SVG Repo Mixer Tools -->
<!DOCTYPE svg PUBLIC "-//W3C//DTD SVG 1.1//EN" "http://www.w3.org/Graphics/SVG/1.1/DTD/svg11.dtd">
<svg fill="#000000" height="800px" width="800px" version="1.1" id="Capa_1" xmlns="http://www.w3.org/2000/svg" xmlns:xlink="http://www.w3.org/1999/xlink" 
	 viewBox="0 0 443.393 443.393" xml:space="preserve">
<g>
	<path d="M426.637,321.531h-63.086l-34.114-23.789c-2.292-1.599-5.281-1.791-7.76-0.498c-2.477,1.293-4.03,3.855-4.03,6.649v17.637
		h-15.612c-9.239,0-16.756,7.517-16.756,16.755v77.234c0,9.239,7.517,16.755,16.756,16.755h124.603
		c9.239,0,16.756-7.517,16.756-16.755v-77.234C443.393,329.048,435.876,321.531,426.637,321.531z M428.393,415.521
		c0,0.968-0.788,1.755-1.756,1.755H302.034c-0.968,0-1.756-0.788-1.756-1.755v-77.234c0-0.968,0.788-1.755,1.756-1.755h23.112
		c4.143,0,7.5-3.358,7.5-7.5v-10.764l24.258,16.916c1.259,0.877,2.756,1.348,4.29,1.348h65.442c0.968,0,1.756,0.788,1.756,1.755
		V415.521z"/>
	<path d="M118.246,146.999c1.187,0,2.377-0.281,3.469-0.851c2.477-1.293,4.03-3.855,4.03-6.649v-17.637h15.613
		c9.239,0,16.756-7.517,16.756-16.755V27.872c0-9.239-7.517-16.755-16.756-16.755H16.756C7.517,11.116,0,18.633,0,27.872v77.234
		c0,9.239,7.517,16.755,16.756,16.755h63.086l34.113,23.789C115.237,146.544,116.738,146.999,118.246,146.999z M110.745,114.361
		v10.764l-24.257-16.916c-1.259-0.877-2.756-1.348-4.29-1.348H16.756c-0.968,0-1.756-0.788-1.756-1.755V27.872
		c0-0.968,0.788-1.755,1.756-1.755h124.603c0.968,0,1.756,0.788,1.756,1.755v77.234c0,0.968-0.788,1.755-1.756,1.755h-23.113
		C114.103,106.861,110.745,110.219,110.745,114.361z"/>
	<path d="M335.196,221.696c0-62.584-50.916-113.5-113.5-113.5s-113.5,50.916-113.5,113.5s50.916,113.5,113.5,113.5
		S335.196,284.28,335.196,221.696z M229.196,278.334c10.943,0.826,21.561,3.451,31.487,7.733
		c-8.022,17.332-19.123,29.496-31.487,33.051V278.334z M229.196,263.275v-34.079h44.339c-0.649,15.469-3.285,30.067-7.408,42.857
		C254.486,267.099,242.024,264.115,229.196,263.275z M229.196,214.196v-34.081c12.827-0.839,25.289-3.823,36.93-8.777
		c4.124,12.79,6.759,27.388,7.408,42.858H229.196z M229.196,165.057v-40.782c12.364,3.555,23.465,15.719,31.487,33.051
		C250.757,161.606,240.138,164.231,229.196,165.057z M270.307,143.072c-2.141-3.815-4.418-7.331-6.811-10.553
		c6.813,3.206,13.204,7.165,19.058,11.778c-2.747,2.165-5.589,4.182-8.526,6.029C272.849,147.834,271.616,145.405,270.307,143.072z
		 M169.366,150.324c-2.937-1.846-5.779-3.863-8.526-6.027c5.854-4.613,12.244-8.572,19.057-11.778
		c-2.393,3.222-4.67,6.739-6.811,10.553C171.776,145.405,170.543,147.833,169.366,150.324z M214.196,124.274v40.782
		c-10.94-0.827-21.559-3.452-31.487-7.734C190.731,139.991,201.833,127.829,214.196,124.274z M214.196,180.115v34.082h-44.34
		c0.649-15.47,3.285-30.07,7.409-42.861C188.909,176.29,201.371,179.274,214.196,180.115z M214.196,229.196v34.08
		c-12.826,0.84-25.288,3.826-36.93,8.781c-4.124-12.791-6.76-27.39-7.409-42.861H214.196z M214.196,278.334v40.784
		c-12.364-3.555-23.465-15.718-31.487-33.048C192.637,281.788,203.255,279.162,214.196,278.334z M173.085,300.32
		c2.141,3.814,4.419,7.331,6.811,10.553c-6.811-3.206-13.201-7.164-19.054-11.775c2.747-2.164,5.588-4.181,8.524-6.028
		C170.544,295.561,171.776,297.989,173.085,300.32z M270.307,300.32c1.309-2.333,2.542-4.761,3.72-7.252
		c2.937,1.847,5.778,3.865,8.524,6.03c-5.854,4.612-12.244,8.57-19.055,11.776C265.888,307.651,268.166,304.135,270.307,300.32z
		 M279.724,278.963c5.125-15.055,8.142-32.027,8.81-49.767h31.379c-1.736,22.953-11.378,43.731-26.198,59.621
		C289.279,285.165,284.604,281.873,279.724,278.963z M319.913,214.196h-31.379c-0.668-17.739-3.685-34.711-8.809-49.766
		c4.88-2.909,9.556-6.2,13.993-9.852C308.536,170.468,318.177,191.244,319.913,214.196z M149.674,154.579
		c4.438,3.65,9.114,6.94,13.994,9.849c-5.125,15.055-8.143,32.028-8.811,49.769H123.48
		C125.216,191.244,134.857,170.468,149.674,154.579z M123.48,229.196h31.378c0.668,17.741,3.685,34.714,8.811,49.77
		c-4.879,2.909-9.554,6.2-13.991,9.851C134.858,272.927,125.216,252.15,123.48,229.196z"/>
	<path d="M34.057,60.489h90c4.143,0,7.5-3.358,7.5-7.5s-3.357-7.5-7.5-7.5h-90c-4.143,0-7.5,3.358-7.5,7.5
		S29.914,60.489,34.057,60.489z"/>
	<path d="M131.557,79.989c0-4.142-3.357-7.5-7.5-7.5h-90c-4.143,0-7.5,3.358-7.5,7.5s3.357,7.5,7.5,7.5h90
		C128.199,87.489,131.557,84.131,131.557,79.989z"/>
	<path d="M409.335,355.904h-90c-4.143,0-7.5,3.358-7.5,7.5s3.357,7.5,7.5,7.5h90c4.143,0,7.5-3.358,7.5-7.5
		S413.478,355.904,409.335,355.904z"/>
	<path d="M409.335,382.904h-90c-4.143,0-7.5,3.358-7.5,7.5s3.357,7.5,7.5,7.5h90c4.143,0,7.5-3.358,7.5-7.5
		S413.478,382.904,409.335,382.904z"/>
</g>
</svg>