<?xml version="1.0" encoding="utf-8"?>
<!-- Generator: Adobe Illustrator 27.5.0, SVG Export Plug-In . SVG Version: 6.00 Build 0)  -->
<svg version="1.1" xmlns="http://www.w3.org/2000/svg" xmlns:xlink="http://www.w3.org/1999/xlink" x="0px" y="0px"
	 viewBox="0 0 500 500" style="enable-background:new 0 0 500 500;" xml:space="preserve">
<g id="BACKGROUND">
	<path style="opacity:0.6;fill:#FDDEC0;" d="M39.248,235.97c0,0-8.354-128.81,113.524-189.082
		C274.65-13.384,488,60.718,440.766,281.555c-39.011,182.392-243.032,162.197-317.091,114.511
		C71.147,362.245,36.181,280.82,39.248,235.97z"/>
</g>
<g id="OBJECTS">
	<g>
		<g>
			<path style="fill:#765E69;" d="M184.086,343.714c0,0,5.274,96.008,18.607,156.286h52.667l-6.977-84.917h10.93L289.151,500h52.209
				c0,0-33.824-131.853-38.325-162.716C298.534,306.421,184.086,343.714,184.086,343.714z"/>
			<g>
				<path style="opacity:0.3;fill:#352C38;" d="M308.361,365.595c-2.355-11.176-4.286-21.185-5.326-28.311
					c-4.501-30.863-118.949,6.43-118.949,6.43s0.461,7.755,1.462,19.733C195.663,366.308,236.166,381.006,308.361,365.595z"/>
				<path style="opacity:0.3;fill:#352C38;" d="M250.148,432.148l-1.744-16.854c-2.4-0.069-4.799-0.154-7.197-0.275
					c-10.578-0.537-21.022-1.737-31.338-3.629C220.425,421.937,235.251,428.054,250.148,432.148z"/>
			</g>
		</g>
		<g>
			<g>
				<g>
					<g>
						<path style="fill:#FFAC9D;" d="M302.24,238.97c0,0,11.957,85.555,29.418,83.163c42.791-5.862,92.845-87.257,75.26-89.015
							c-7.933-0.793-54.853,35.161-54.853,35.161s-15.827-85.582-35.171-82.651C297.551,188.559,302.24,238.97,302.24,238.97z"/>
						<path style="fill:#F19C7C;" d="M325.393,261.634c-5.65,2.761-11.477,4.764-17.432,6.034
							c-3.603-15.752-5.721-28.698-5.721-28.698s-4.69-50.411,14.654-53.342c13.024-1.973,24.453,36.174,30.531,61.314
							C340.602,252.606,333.347,257.746,325.393,261.634z"/>
					</g>
					<g>
						<g>
							<path style="fill:#FFAC9D;" d="M396.658,239.329c0,0,5.433-7.402,14.006-6.654c8.573,0.749,16.678,3.371,16.678,3.371
								s14.382-2.578,15.459,0.279c1.078,2.857-11.992,5.764-11.992,5.764l-5.387,0.048l-0.817-0.675c0,0,13.326,4.796,18.245,7.418
								c0,0,10.446-8.34,16.63-6.795c0,0-7.916,8.574-10.68,10.073c-2.764,1.499-0.75-1.78-0.75-1.78s9.04-7.497,14.1-3.843
								l-10.305,6.982l5.152-5.482c0,0,3.935-1.406,4.404,2.295c0,0-18.222,10.777-21.454,10.168
								c-3.232-0.608-27.265-1.636-39.352-6.647C388.508,248.84,389.538,243.921,396.658,239.329z"/>
							<g>
								<path style="fill:#F19C7C;" d="M430.809,242.088l-5.11,0.045c-3.012-4.117-9.127-9.634-20.011-8.977
									c1.508-0.422,3.167-0.64,4.976-0.482c8.573,0.748,16.678,3.371,16.678,3.371s14.382-2.578,15.459,0.279
									C443.879,239.182,430.809,242.088,430.809,242.088z"/>
							</g>
						</g>
						<g>
							<g>
								<path style="fill:#FC6A5A;" d="M437.559,254.098c1.311-0.55,2.649-1.034,3.997-1.49c1.348-0.458,2.712-0.873,4.1-1.209
									c1.387-0.338,2.792-0.628,4.239-0.749c0.723-0.052,1.46-0.079,2.211,0.053c0.374,0.069,0.756,0.17,1.122,0.368
									c0.365,0.192,0.712,0.515,0.895,0.935l0.137,0.314l-0.297,0.173c-2.329,1.359-4.681,2.662-7.07,3.91
									c-2.406,1.214-4.836,2.387-7.386,3.332c-0.641,0.23-1.289,0.446-1.964,0.61c-0.338,0.079-0.683,0.153-1.043,0.183
									c-0.337,0.023-0.663,0.063-1.017,0.057c-1.391,0.024-2.729-0.1-4.073-0.269c-1.341-0.168-2.669-0.402-3.985-0.689
									c-1.317-0.282-2.627-0.589-3.92-0.961c2.643,0.486,5.302,0.876,7.962,1.121c1.325,0.112,2.674,0.175,3.969,0.098
									c0.319-0.005,0.659-0.062,0.991-0.096c0.309-0.029,0.622-0.1,0.936-0.178c0.628-0.161,1.254-0.378,1.874-0.609
									c2.479-0.95,4.878-2.156,7.257-3.378c2.388-1.209,4.753-2.481,7.081-3.8l-0.161,0.487c-0.189-0.483-0.8-0.756-1.441-0.874
									c-0.648-0.121-1.342-0.141-2.034-0.112c-1.389,0.063-2.785,0.294-4.167,0.576
									C443.007,252.487,440.267,253.238,437.559,254.098z"/>
							</g>
							<g>
								<path style="fill:#FC6A5A;" d="M449.004,251.217c1.01-0.649,2.069-1.22,3.15-1.752c1.08-0.533,2.196-1.004,3.359-1.359
									c1.164-0.338,2.374-0.643,3.668-0.498c0.322,0.041,0.645,0.12,0.962,0.246c0.156,0.068,0.306,0.158,0.456,0.243
									c0.134,0.113,0.28,0.214,0.4,0.342c0.24,0.259,0.429,0.56,0.553,0.878c0.13,0.32,0.186,0.645,0.238,0.971l0.037,0.234
									l-0.219,0.137c-1.946,1.215-3.907,2.392-5.895,3.53c-2.003,1.111-4.021,2.196-6.08,3.208
									c-1.029,0.506-2.063,1.004-3.129,1.437c-0.526,0.23-1.06,0.445-1.601,0.643c-0.534,0.213-1.077,0.406-1.631,0.573
									c-0.543,0.192-1.109,0.329-1.678,0.45c-0.278,0.077-0.577,0.093-0.87,0.116c-0.291,0.022-0.588,0.062-0.88,0.022
									l-1.708-0.164l-0.853-0.101l-0.213-0.033l-0.108-0.022c-0.005-0.021-0.034,0.033-0.028-0.059
									c0.018-0.009,0.028-0.008,0.037-0.009l0.055-0.002l0.43,0.015l-0.427,0.028c-0.029-0.013-0.091,0.049-0.055-0.026
									l0.103,0.01l0.213,0.011l0.856,0.023l1.714,0.034c0.281,0.017,0.55-0.043,0.826-0.086c0.274-0.043,0.546-0.076,0.815-0.173
									c0.541-0.154,1.081-0.302,1.607-0.519c0.533-0.188,1.057-0.402,1.574-0.636c0.523-0.219,1.039-0.455,1.549-0.707
									c0.513-0.243,1.025-0.49,1.53-0.751c0.508-0.255,1.023-0.495,1.526-0.763c2.027-1.035,4.019-2.145,5.995-3.281
									c1.987-1.116,3.969-2.251,5.915-3.43l-0.182,0.371c-0.041-0.266-0.081-0.533-0.176-0.772
									c-0.089-0.242-0.222-0.454-0.385-0.639c-0.083-0.091-0.187-0.161-0.277-0.246c-0.112-0.06-0.215-0.132-0.33-0.19
									c-0.237-0.106-0.494-0.184-0.765-0.232c-1.098-0.181-2.289,0.041-3.425,0.32
									C453.372,249.227,451.151,250.155,449.004,251.217z"/>
							</g>
							<g>
								<path style="fill:#FC6A5A;" d="M460.27,248.141c0.573-0.684,1.177-1.336,1.767-2.003l-0.023,0.245
									c-0.25-0.239-0.681-0.423-1.081-0.524c-0.414-0.103-0.847-0.139-1.279-0.164c-0.871-0.023-1.749,0.079-2.62,0.22
									c-0.452,0.092-0.845,0.154-1.287,0.286c-0.438,0.113-0.882,0.219-1.287,0.373c-0.414,0.15-0.83,0.266-1.243,0.442
									l-1.247,0.488c-0.413,0.169-0.817,0.363-1.226,0.543c-0.411,0.178-0.822,0.354-1.22,0.56
									c-0.805,0.393-1.613,0.783-2.396,1.221c-0.39,0.221-0.802,0.408-1.183,0.646l-1.165,0.681
									c-0.791,0.437-1.51,0.98-2.296,1.443c0.676-0.6,1.351-1.216,2.078-1.762l1.101-0.808c0.362-0.279,0.758-0.505,1.141-0.751
									c0.763-0.501,1.556-0.95,2.364-1.375c0.796-0.447,1.636-0.811,2.466-1.191l1.272-0.517c0.422-0.173,0.88-0.298,1.318-0.448
									c0.444-0.159,0.882-0.256,1.321-0.363c0.429-0.117,0.932-0.18,1.37-0.249c0.916-0.119,1.849-0.168,2.785-0.075
									c0.468,0.054,0.935,0.138,1.388,0.299c0.45,0.177,0.893,0.359,1.241,0.809l0.105,0.136l-0.128,0.109
									C461.628,246.989,460.965,247.581,460.27,248.141z"/>
							</g>
							<g>
								<path style="fill:#FC6A5A;" d="M456.591,245.032c0,0,0.252-0.251,0.692-0.691c0.438-0.434,1.082-1.068,1.745-1.856
									c0.077-0.098,0.158-0.204,0.207-0.297c0.027-0.022,0.018-0.132,0.023,0.023c0.015,0.059,0.056,0.099,0.087,0.124
									c0.022,0.015,0.033,0.018,0.069,0.028l-0.026-0.004l-0.106-0.015c-0.29-0.057-0.567-0.056-0.85-0.061
									c-0.557-0.044-1.204,0.087-1.837,0.114c-0.634,0.132-1.29,0.268-1.956,0.407c-0.651,0.209-1.312,0.421-1.973,0.633
									c-0.655,0.228-1.279,0.55-1.911,0.816c-0.315,0.137-0.628,0.272-0.937,0.406c-0.306,0.141-0.587,0.325-0.875,0.482
									c-0.575,0.32-1.131,0.63-1.658,0.924c-0.265,0.146-0.523,0.287-0.773,0.424c-0.236,0.16-0.464,0.314-0.682,0.462
									c-1.755,1.178-2.978,1.928-2.978,1.928s1.044-0.958,2.688-2.342c0.206-0.172,0.421-0.351,0.643-0.537
									c0.242-0.158,0.492-0.322,0.75-0.49c0.519-0.333,1.067-0.683,1.633-1.046c0.288-0.173,0.568-0.374,0.877-0.533
									c0.315-0.148,0.633-0.298,0.954-0.448c0.65-0.285,1.289-0.626,1.968-0.872c0.693-0.211,1.386-0.423,2.069-0.631
									c0.698-0.155,1.403-0.236,2.073-0.351c0.694-0.01,1.333-0.091,1.991,0.003c0.325,0.033,0.642,0.058,0.911,0.14l0.104,0.026
									l0.026,0.006c0.054,0.013,0.077,0.029,0.116,0.052c0.068,0.038,0.122,0.11,0.149,0.204c0.03,0.297-0.069,0.315-0.103,0.412
									c-0.098,0.143-0.195,0.243-0.293,0.345c-0.785,0.773-1.518,1.268-2.011,1.653
									C456.891,244.838,456.591,245.032,456.591,245.032z"/>
							</g>
						</g>
					</g>
				</g>
				<g>
					<path style="fill:#6F96BD;" d="M294.006,171.398c0,0,25.719-15.431,37.935,2.572c12.216,18.003,20.575,55.938,20.575,55.938
						s-21.218,24.433-48.223,21.861C277.288,249.197,294.006,171.398,294.006,171.398z"/>
					<path style="opacity:0.5;fill:#4E7FA8;" d="M294.119,213.727c12.436-3.891,18.872-18.237,31.421-21.754
						c1.316,12.021,7.395,33.022,0.738,43.896c-3.828,6.253-8.812,11.274-14.199,15.916c-2.53,0.221-5.128,0.237-7.785-0.016
						c-12.447-1.185-15.602-18.353-15.391-36.517C290.65,214.773,292.389,214.268,294.119,213.727z"/>
				</g>
			</g>
			<g>
				<g>
					<g>
						<path style="fill:#FFAC9D;" d="M184.328,237.156c0,0-11.957,85.555-29.418,83.163c-42.791-5.862-92.845-87.257-75.26-89.015
							c7.933-0.793,54.853,35.161,54.853,35.161s15.827-85.582,35.171-82.651C189.017,186.745,184.328,237.156,184.328,237.156z"/>
						<path style="fill:#F19C7C;" d="M161.175,259.819c5.65,2.761,11.477,4.764,17.432,6.034
							c3.603-15.752,5.721-28.698,5.721-28.698s4.689-50.411-14.654-53.342c-13.024-1.973-24.453,36.174-30.531,61.314
							C145.966,250.792,153.221,255.932,161.175,259.819z"/>
					</g>
					<g>
						<g>
							<path style="fill:#FFAC9D;" d="M89.91,237.515c0,0-5.433-7.402-14.006-6.654c-8.573,0.748-16.678,3.371-16.678,3.371
								s-14.382-2.578-15.459,0.279c-1.078,2.857,11.992,5.764,11.992,5.764l5.387,0.047l0.817-0.675c0,0-13.326,4.796-18.245,7.418
								c0,0-10.446-8.34-16.63-6.795c0,0,7.916,8.574,10.68,10.073c2.764,1.499,0.75-1.78,0.75-1.78s-9.04-7.497-14.1-3.843
								l10.305,6.981l-5.152-5.482c0,0-3.935-1.406-4.404,2.295c0,0,18.222,10.777,21.454,10.168
								c3.233-0.609,27.265-1.636,39.352-6.647C98.06,247.026,97.03,242.107,89.91,237.515z"/>
							<g>
								<path style="fill:#F19C7C;" d="M55.758,240.274l5.11,0.045c3.012-4.117,9.127-9.634,20.011-8.977
									c-1.508-0.422-3.167-0.64-4.976-0.482c-8.573,0.748-16.678,3.371-16.678,3.371s-14.382-2.578-15.459,0.279
									C42.689,237.368,55.758,240.274,55.758,240.274z"/>
							</g>
						</g>
						<g>
							<g>
								<path style="fill:#FC6A5A;" d="M49.008,252.284c-2.707-0.86-5.447-1.61-8.21-2.196c-1.382-0.282-2.778-0.513-4.167-0.576
									c-0.692-0.029-1.386-0.008-2.034,0.112c-0.641,0.118-1.253,0.391-1.441,0.874l-0.161-0.487
									c2.328,1.319,4.693,2.591,7.081,3.8c2.379,1.222,4.778,2.428,7.257,3.378c0.62,0.232,1.246,0.448,1.874,0.609
									c0.314,0.078,0.628,0.149,0.936,0.178c0.332,0.034,0.672,0.091,0.991,0.096c1.294,0.077,2.643,0.014,3.968-0.098
									c2.66-0.245,5.319-0.635,7.962-1.121c-1.293,0.372-2.603,0.679-3.92,0.961c-1.316,0.286-2.645,0.521-3.985,0.689
									c-1.345,0.169-2.682,0.294-4.073,0.269c-0.354,0.005-0.68-0.034-1.017-0.057c-0.361-0.03-0.705-0.104-1.043-0.183
									c-0.675-0.164-1.323-0.38-1.964-0.61c-2.551-0.944-4.98-2.118-7.386-3.332c-2.389-1.248-4.741-2.551-7.07-3.91l-0.298-0.174
									l0.137-0.314c0.182-0.42,0.53-0.743,0.895-0.935c0.366-0.198,0.748-0.299,1.122-0.368c0.751-0.132,1.488-0.105,2.211-0.053
									c1.447,0.122,2.852,0.411,4.239,0.749c1.388,0.336,2.753,0.75,4.1,1.209C46.36,251.25,47.697,251.734,49.008,252.284z"/>
							</g>
							<g>
								<path style="fill:#FC6A5A;" d="M37.564,249.403c-2.147-1.062-4.368-1.99-6.651-2.607c-1.136-0.279-2.327-0.501-3.425-0.32
									c-0.271,0.047-0.528,0.126-0.765,0.232c-0.115,0.058-0.219,0.13-0.33,0.189c-0.09,0.085-0.195,0.155-0.277,0.246
									c-0.163,0.185-0.296,0.398-0.385,0.639c-0.095,0.24-0.135,0.506-0.176,0.772l-0.182-0.371
									c1.946,1.179,3.929,2.314,5.915,3.43c1.976,1.136,3.968,2.246,5.995,3.281c0.503,0.268,1.018,0.508,1.526,0.763
									c0.506,0.262,1.017,0.508,1.53,0.752c0.51,0.252,1.026,0.488,1.549,0.707c0.518,0.234,1.042,0.449,1.574,0.636
									c0.526,0.216,1.066,0.364,1.607,0.519c0.269,0.097,0.541,0.13,0.815,0.173c0.276,0.042,0.545,0.103,0.826,0.086l1.714-0.034
									l0.856-0.023l0.213-0.01l0.103-0.01c0.036,0.074-0.026,0.013-0.055,0.026l-0.427-0.028l0.43-0.015l0.055,0.002
									c0.009,0.001,0.019,0,0.037,0.009c0.007,0.093-0.023,0.039-0.028,0.059l-0.108,0.022l-0.213,0.033l-0.853,0.101
									l-1.708,0.164c-0.292,0.04-0.589,0-0.88-0.022c-0.294-0.023-0.592-0.039-0.87-0.116c-0.569-0.121-1.135-0.259-1.678-0.45
									c-0.554-0.167-1.097-0.36-1.631-0.573c-0.541-0.198-1.075-0.413-1.601-0.643c-1.066-0.433-2.1-0.931-3.129-1.437
									c-2.059-1.012-4.077-2.097-6.08-3.208c-1.988-1.138-3.949-2.315-5.895-3.53l-0.219-0.137l0.037-0.234
									c0.052-0.326,0.108-0.652,0.238-0.971c0.124-0.318,0.313-0.619,0.553-0.878c0.12-0.128,0.266-0.23,0.4-0.342
									c0.15-0.085,0.3-0.175,0.456-0.243c0.317-0.126,0.64-0.205,0.962-0.246c1.293-0.145,2.504,0.161,3.668,0.498
									c1.164,0.355,2.279,0.826,3.359,1.359C35.495,248.183,36.554,248.754,37.564,249.403z"/>
							</g>
							<g>
								<path style="fill:#FC6A5A;" d="M26.298,246.327c-0.695-0.56-1.358-1.152-2.035-1.73l-0.128-0.109l0.105-0.135
									c0.348-0.45,0.792-0.632,1.241-0.809c0.453-0.161,0.92-0.245,1.387-0.299c0.936-0.093,1.869-0.044,2.785,0.075
									c0.437,0.07,0.941,0.133,1.37,0.249c0.439,0.107,0.877,0.205,1.321,0.363c0.438,0.15,0.896,0.275,1.318,0.447l1.272,0.517
									c0.831,0.38,1.67,0.744,2.467,1.191c0.807,0.425,1.601,0.874,2.364,1.375c0.383,0.247,0.778,0.473,1.141,0.751l1.101,0.809
									c0.727,0.546,1.402,1.162,2.078,1.762c-0.786-0.463-1.505-1.006-2.296-1.443l-1.165-0.681
									c-0.38-0.238-0.792-0.425-1.182-0.646c-0.784-0.438-1.591-0.828-2.396-1.221c-0.398-0.206-0.81-0.382-1.22-0.56
									c-0.409-0.18-0.813-0.374-1.226-0.543l-1.247-0.488c-0.413-0.176-0.829-0.292-1.243-0.442
									c-0.406-0.154-0.849-0.26-1.287-0.373c-0.442-0.132-0.835-0.194-1.287-0.286c-0.872-0.141-1.75-0.243-2.62-0.22
									c-0.432,0.025-0.865,0.061-1.279,0.164c-0.399,0.1-0.83,0.285-1.081,0.524l-0.024-0.245
									C25.121,244.991,25.725,245.643,26.298,246.327z"/>
							</g>
							<g>
								<path style="fill:#FC6A5A;" d="M29.977,243.218c0,0-0.3-0.193-0.803-0.562c-0.494-0.385-1.226-0.879-2.011-1.653
									c-0.098-0.103-0.196-0.203-0.293-0.345c-0.035-0.097-0.133-0.115-0.103-0.412c0.027-0.093,0.081-0.166,0.149-0.204
									c0.038-0.022,0.062-0.039,0.115-0.052l0.026-0.006l0.104-0.026c0.269-0.082,0.586-0.107,0.911-0.14
									c0.658-0.094,1.297-0.013,1.991-0.002c0.67,0.115,1.375,0.196,2.073,0.351c0.682,0.208,1.376,0.419,2.069,0.631
									c0.68,0.246,1.318,0.587,1.968,0.872c0.321,0.151,0.64,0.3,0.954,0.448c0.308,0.159,0.588,0.359,0.877,0.533
									c0.567,0.363,1.114,0.713,1.633,1.046c0.257,0.168,0.507,0.332,0.75,0.49c0.222,0.186,0.437,0.365,0.643,0.537
									c1.644,1.384,2.688,2.342,2.688,2.342s-1.222-0.75-2.978-1.928c-0.219-0.148-0.446-0.302-0.682-0.462
									c-0.25-0.137-0.508-0.279-0.773-0.424c-0.527-0.294-1.083-0.603-1.658-0.924c-0.288-0.157-0.569-0.341-0.875-0.481
									c-0.309-0.134-0.622-0.27-0.937-0.406c-0.632-0.266-1.256-0.588-1.912-0.816c-0.661-0.212-1.322-0.424-1.973-0.633
									c-0.666-0.138-1.322-0.275-1.956-0.407c-0.633-0.027-1.28-0.158-1.837-0.114c-0.284,0.006-0.56,0.004-0.85,0.061
									l-0.106,0.015l-0.026,0.004c0.036-0.01,0.046-0.013,0.069-0.028c0.031-0.025,0.072-0.065,0.087-0.124
									c0.004-0.156-0.004-0.045,0.023-0.023c0.049,0.093,0.13,0.199,0.207,0.297c0.663,0.789,1.307,1.422,1.745,1.856
									C29.725,242.966,29.977,243.218,29.977,243.218z"/>
							</g>
						</g>
					</g>
				</g>
				<g>
					<path style="fill:#6F96BD;" d="M195.016,175.256c0,0-25.719-15.431-37.935,2.572c-12.216,18.003-20.575,55.938-20.575,55.938
						s21.218,24.433,48.223,21.861C211.734,253.055,195.016,175.256,195.016,175.256z"/>
					<path style="opacity:0.5;fill:#4E7FA8;" d="M194.904,217.585c-12.436-3.891-24.376-9.23-36.925-12.748
						c-1.316,12.021-1.89,24.016,4.766,34.89c3.828,6.253,8.812,11.274,14.199,15.916c2.53,0.221,5.128,0.237,7.785-0.016
						c12.447-1.185,15.602-18.353,15.39-36.517C198.372,218.631,196.633,218.126,194.904,217.585z"/>
				</g>
			</g>
			<path style="fill:#6F96BD;" d="M220.735,160.467c0,0-3.858,13.502-28.291,10.93c-24.433-2.572-34.077-1.929-39.221,21.218
				c-5.144,23.147,23.79,36.649,23.79,36.649s-5.787,81.014,1.929,129.88c0,0,63.654,19.932,133.738-8.359
				c0,0-7.716-79.085-2.572-102.875c5.144-23.79,27.322-40.419,23.464-62.28c-3.858-21.861-22.812-29.953-44.03-16.451
				c-21.218,13.502-21.227-5.498-21.227-5.498L220.735,160.467z"/>
		</g>
		<g>
			<g>
				<g>
					<path style="fill:#F19C7C;" d="M243.497,187.472c12.675,0.63,25.622-9.621,33.176-20.575c-8.425-1.303-8.359-3.215-8.359-3.215
						l-47.58-3.215c0,0-1.956,6.811-11.846,9.836C215.627,181.769,230.832,186.843,243.497,187.472z"/>
					<path style="fill:#FFAC9D;" d="M284.712,128.49c0,0,4.775-13.812,11.417-9.136c6.642,4.676-1.462,26.657-11.1,27.233
						C275.392,147.163,284.712,128.49,284.712,128.49z"/>
					<path style="fill:#F19C7C;" d="M228.213,119.437c0,0,2.816-14.231-4.991-13.218c-7.807,1.013-11.868,23.895-4.153,28.836
						C226.785,139.997,228.213,119.437,228.213,119.437z"/>
					<path style="fill:#FFAC9D;" d="M261.242,83.954c0,0,31.506,0.643,24.433,43.722c-7.073,43.079-25.076,56.581-45.008,49.509
						c-19.932-7.073-31.505-19.932-19.289-59.153C233.595,78.81,261.242,83.954,261.242,83.954z"/>
				</g>
				<g>
					<path style="fill:#965450;" d="M295.078,86.044c0,0,0.723-20.012-14.949-27.487l3.474,7.92
						c-2.841-4.827-8.507-11.212-19.146-13.224l2.411,6.028c0,0-6.751-9.403-23.87-7.716l0.482,4.581c0,0-3.617-2.411-4.34-6.028
						c0,0-6.075,8.956-4.163,18.011c-1.269-3.787-2.16-8.719-0.418-12.948c0,0-3.56,7.313-2.748,15.16
						c-1.695,0.057-5.043,0.639-7.138,4.129c-2.893,4.822-2.893,24.111-3.134,37.373c0,0-3.617,22.424-6.992,28.21
						s-10.127,20.736-0.482,31.104l1.447-2.893c0,0,4.34,15.19,24.594,19.771l1.206-2.652l1.206,3.858
						c0,0,22.906-0.723,28.934-11.091l-2.17,4.34c0,0,12.538-6.269,13.261-15.672c0.723-9.403,2.329-38.079,5.787-43.883
						C295.078,111.602,307.375,94.724,295.078,86.044z M252.884,170.916c-9.404,0.241-5.063-11.091-5.063-11.091l-6.51-0.723
						c0,0-0.482,7.957-4.34,7.716c-4.629-0.289-9.779-2.606-7.475-13.743c1.447-6.992,2.652-8.921,2.652-8.921
						s9.886,5.063,14.467-0.241c0,0,3.135,6.028,15.672,6.269C262.287,150.18,263.733,170.637,252.884,170.916z M268.315,163.682
						c-6.028-1.206,3.617-11.814,0-18.566s-20.012-6.751-20.012-6.751s-10.368-4.099-16.396-3.134
						c-6.428,1.029-0.965,18.084-8.921,17.601c-7.957-0.482,5.305-45.329,5.305-45.329c5.546-2.17,8.921-15.431,8.921-15.431
						c25.558,7.716,40.989,5.304,40.989,5.304c-1.206,15.672,5.305,20.736,5.305,20.736
						C280.853,140.053,274.343,164.888,268.315,163.682z"/>
					<path style="fill:#76413B;" d="M295.078,86.044c0,0,0.723-20.012-14.949-27.487l3.474,7.92
						c-2.075-3.525-5.666-7.873-11.589-10.75c0.859,1.536,1.584,3.134,2.225,4.625c2.576,6,3.61,12.851,1.247,19.059
						c-2.186,5.744-7.789,11.217-12.964,14.311c-2.372,1.418-4.613,2.235-6.834,2.643c14.321,2.286,22.513,1.011,22.513,1.011
						c-1.206,15.672,5.305,20.736,5.305,20.736c-2.652,21.941-9.162,46.776-15.19,45.57c-6.028-1.206,3.617-11.814,0-18.566
						c-0.78-1.457-2.158-2.598-3.835-3.494c0.992,2.397,1.343,5.278,1.347,7.862c0.009,4.911-0.971,9.754-2.653,14.371
						c-1.752,4.809-3.786,10.826-7.576,14.439c-7.147,6.813-17.138,6.765-25.78,3.054c-3.237-1.39-6.791-3.337-10.21-5.674
						c3.521,4.542,9.78,9.936,20.496,12.36l1.206-2.652l1.206,3.858c0,0,22.906-0.723,28.934-11.091l-2.17,4.34
						c0,0,12.538-6.269,13.261-15.672c0.723-9.403,2.329-38.079,5.787-43.883C295.078,111.602,307.375,94.724,295.078,86.044z"/>
				</g>
			</g>
			<g>
				<g>
					<path style="fill:#FC6A5A;" d="M250.714,115.701c0.144,0.918,0.165,1.854,0.121,2.784c-0.031,0.933-0.163,1.858-0.317,2.781
						c-0.184,0.915-0.387,1.834-0.676,2.728c-0.291,0.892-0.606,1.781-1.002,2.635c-0.389,0.857-0.824,1.695-1.304,2.506
						c-0.487,0.808-1.034,1.577-1.592,2.335c-0.593,0.733-1.205,1.448-1.866,2.116c-0.666,0.663-1.372,1.283-2.102,1.865
						l-0.144-1.022c2.185,1.255,4.355,2.543,6.471,3.936c-2.385-0.857-4.716-1.82-7.031-2.815l-0.76-0.327l0.616-0.695l0.889-1.003
						c0.286-0.342,0.576-0.678,0.846-1.032c0.574-0.676,1.084-1.401,1.594-2.121c1.01-1.447,1.913-2.964,2.704-4.543
						c0.382-0.795,0.783-1.586,1.114-2.41c0.333-0.821,0.676-1.645,0.956-2.494C249.827,119.24,250.326,117.507,250.714,115.701z"/>
				</g>
				<g>
					<path style="fill:#FC6A5A;" d="M236.006,152.591c0,0,1.252-0.917,3.395-1.78c1.065-0.442,2.35-0.868,3.77-1.176
						c1.418-0.314,2.975-0.525,4.554-0.501c0.788,0.006,1.581,0.071,2.355,0.192c0.776,0.111,1.527,0.322,2.241,0.552
						c1.426,0.482,2.659,1.22,3.554,2.009c0.459,0.383,0.82,0.793,1.125,1.163c0.306,0.367,0.518,0.73,0.708,1.007
						c0.322,0.603,0.481,0.947,0.481,0.947s-0.298-0.256-0.775-0.7c-0.263-0.201-0.564-0.455-0.924-0.719
						c-0.368-0.257-0.784-0.53-1.255-0.792c-0.473-0.258-0.997-0.503-1.563-0.724c-0.565-0.225-1.186-0.389-1.823-0.558
						c-0.644-0.155-1.324-0.248-2.018-0.329c-0.696-0.067-1.407-0.124-2.126-0.118c-1.434-0.021-2.886,0.086-4.25,0.243
						c-1.365,0.159-2.643,0.37-3.745,0.565C237.51,152.271,236.006,152.591,236.006,152.591z"/>
				</g>
				<g>
					<path style="fill:#76413B;" d="M258.429,114.013c0,0,0.141-0.382,0.525-0.966c0.369-0.598,0.986-1.383,1.883-2.197
						c0.459-0.39,0.966-0.819,1.573-1.178c0.583-0.4,1.276-0.704,2-1.016c0.362-0.159,0.763-0.242,1.158-0.357
						c0.397-0.115,0.801-0.227,1.232-0.25c0.425-0.043,0.856-0.098,1.289-0.122c0.435,0.009,0.875,0.056,1.314,0.088
						c0.886,0.036,1.718,0.368,2.54,0.611c0.415,0.118,0.767,0.363,1.138,0.551c0.365,0.2,0.724,0.395,1.064,0.604
						c0.62,0.492,1.186,1.001,1.704,1.481c0.487,0.51,0.851,1.071,1.207,1.555c0.168,0.248,0.328,0.486,0.481,0.712
						c0.133,0.239,0.236,0.479,0.337,0.701c0.201,0.443,0.349,0.843,0.472,1.165c0.243,0.647,0.336,1.031,0.336,1.031
						s-0.372-0.194-0.941-0.559c-0.283-0.184-0.629-0.399-0.994-0.66c-0.189-0.124-0.366-0.279-0.58-0.409
						c-0.215-0.123-0.442-0.251-0.678-0.386c-0.468-0.26-0.924-0.596-1.439-0.869c-0.532-0.241-1.067-0.505-1.6-0.789
						c-0.579-0.166-1.133-0.414-1.71-0.584c-0.598-0.076-1.161-0.339-1.773-0.323c-0.3-0.028-0.598-0.078-0.899-0.098
						c-0.304,0.023-0.607,0.015-0.911,0.019c-0.607-0.01-1.214,0.115-1.817,0.169c-0.593,0.132-1.195,0.203-1.754,0.377
						c-0.575,0.123-1.109,0.307-1.624,0.454c-1.012,0.328-1.9,0.633-2.526,0.869C258.796,113.876,258.429,114.013,258.429,114.013z"
						/>
				</g>
				<g>
					<path style="fill:#76413B;" d="M250.472,112.807c0,0-0.328-0.234-0.86-0.632c-0.52-0.377-1.264-0.916-2.156-1.563
						c-1.74-1.22-4.011-2.718-6.232-3.138c-0.553-0.13-1.107-0.173-1.66-0.172c-0.553-0.005-1.108,0.065-1.66,0.17
						c-0.551,0.11-1.1,0.262-1.626,0.451c-0.273,0.07-0.52,0.199-0.775,0.295c-0.257,0.096-0.506,0.194-0.738,0.312
						c-0.476,0.215-0.928,0.418-1.318,0.629c-0.398,0.199-0.771,0.362-1.056,0.526c-0.587,0.31-0.966,0.469-0.966,0.469
						s0.122-0.376,0.414-1.002c0.14-0.318,0.337-0.687,0.599-1.091c0.246-0.418,0.578-0.849,0.971-1.309
						c0.392-0.458,0.874-0.92,1.439-1.358c0.567-0.437,1.228-0.849,1.982-1.171c0.379-0.159,0.769-0.317,1.192-0.412l0.633-0.16
						l0.659-0.084c0.886-0.112,1.809-0.049,2.69,0.128c0.887,0.176,1.714,0.504,2.473,0.891c0.757,0.391,1.425,0.871,2.019,1.372
						c1.175,1.018,2.029,2.144,2.621,3.169C250.309,111.187,250.472,112.807,250.472,112.807z"/>
				</g>
				<path style="fill:#352C38;" d="M243.48,121.005c-0.545,2.443-1.844,4.233-2.9,3.997c-1.056-0.236-1.47-2.408-0.925-4.851
					c0.545-2.443,1.844-4.233,2.9-3.997C243.612,116.39,244.026,118.562,243.48,121.005z"/>
				<path style="fill:#352C38;" d="M272.397,125.772c-0.545,2.443-1.844,4.233-2.9,3.997c-1.056-0.236-1.47-2.408-0.925-4.851
					c0.545-2.443,1.844-4.233,2.9-3.997C272.529,121.157,272.943,123.329,272.397,125.772z"/>
				<g>
					<path style="fill:#FC6A5A;" d="M287.455,143.801c0.441-0.482,0.821-1.013,1.124-1.561c0.15-0.275,0.266-0.562,0.347-0.842
						c0.023-0.142,0.085-0.281,0.078-0.418c-0.01-0.134,0.036-0.274-0.015-0.393c-0.038-0.12-0.031-0.248-0.114-0.347
						c-0.07-0.101-0.092-0.216-0.204-0.296c-0.098-0.084-0.156-0.186-0.272-0.258l-0.343-0.214c-0.105-0.078-0.263-0.112-0.39-0.17
						c-0.136-0.05-0.262-0.111-0.403-0.154l-0.874-0.216l-0.572-0.142l0.075-0.614c0.156-1.266,0.329-2.504,0.584-3.742
						c0.257-1.234,0.526-2.47,0.889-3.687c0.364-1.216,0.775-2.426,1.283-3.615c0.526-1.18,1.15-2.343,2.009-3.423
						c0.439-0.536,0.974-1.033,1.634-1.424c0.682-0.387,1.438-0.629,2.382-0.506c0.203,0.018,0.866,0.208,1.194,0.505
						c0.365,0.305,0.609,0.691,0.764,1.067c0.279,0.756,0.298,1.462,0.273,2.132c-0.104,1.337-0.418,2.574-0.83,3.772
						c-0.403,1.199-0.905,2.355-1.491,3.464c0.286-1.219,0.528-2.44,0.732-3.653c0.179-1.213,0.348-2.436,0.27-3.59
						c-0.027-0.568-0.126-1.126-0.325-1.524c-0.105-0.189-0.228-0.32-0.351-0.404c-0.176-0.075-0.12-0.077-0.533-0.14l-0.014-0.002
						c0.03,0.004-0.076-0.011,0.065,0.009l-0.005,0l-0.02,0.002l-0.04,0.003l-0.08,0.005l-0.159,0.005
						c-0.105,0.01-0.207,0.05-0.311,0.067c-0.204,0.069-0.408,0.158-0.605,0.296c-0.398,0.263-0.758,0.654-1.105,1.079
						c-0.674,0.882-1.228,1.933-1.689,3.032c-0.483,1.092-0.902,2.231-1.271,3.39c-0.364,1.162-0.731,2.331-1.038,3.519
						c-0.305,1.185-0.633,2.383-0.883,3.571l-0.496-0.755l0.982,0.375c0.161,0.074,0.32,0.172,0.479,0.258
						c0.156,0.098,0.319,0.157,0.466,0.287l0.438,0.367c0.143,0.124,0.252,0.312,0.372,0.467c0.131,0.149,0.177,0.368,0.25,0.557
						c0.086,0.189,0.066,0.4,0.082,0.599c0.027,0.203-0.051,0.385-0.078,0.573c-0.031,0.189-0.128,0.345-0.19,0.515
						c-0.066,0.169-0.177,0.306-0.265,0.457c-0.09,0.149-0.209,0.274-0.311,0.409C288.516,143.016,288,143.439,287.455,143.801z"/>
				</g>
			</g>
		</g>
	</g>
</g>
</svg>
