<svg width="341.59999999999997px" height="118.439990234375px" xmlns="http://www.w3.org/2000/svg" viewBox="79.20000000000002 15.780004882812499 341.59999999999997 118.439990234375" style="background: transparent;" preserveAspectRatio="xMidYMid"><defs><filter id="editing-extrusion" x="-100%" y="-100%" width="300%" height="300%"><feFlood result="color1" flood-color="#001f68"></feFlood><feConvolveMatrix order="10,10" divisor="1" kernelMatrix="1 0 0 0 0 0 0 0 0 0 0 1 0 0 0 0 0 0 0 0 0 0 1 0 0 0 0 0 0 0 0 0 0 1 0 0 0 0 0 0 0 0 0 0 1 0 0 0 0 0 0 0 0 0 0 1 0 0 0 0 0 0 0 0 0 0 1 0 0 0 0 0 0 0 0 0 0 1 0 0 0 0 0 0 0 0 0 0 1 0 0 0 0 0 0 0 0 0 0 1" in="SourceAlpha" result="extrude"></feConvolveMatrix><feComposite in="color1" in2="extrude" result="comp-extrude" operator="in"></feComposite><feOffset dx="5" dy="5" in="comp-extrude" result="offset-extrude"></feOffset><feMerge><feMergeNode in="offset-extrude"></feMergeNode><feMergeNode in="SourceGraphic"></feMergeNode></feMerge></filter></defs><g filter="url(#editing-extrusion)"><g transform="translate(132.46499574184418, 98.58500099182129)"><path d="M49.22 0L34.24 0L32.38-6.21L16.96-6.21L15.10 0L0.64 0L16.70-44.03L33.15-44.03L49.22 0ZM24.58-31.74L19.90-16.06L29.44-16.06L24.83-31.74L24.58-31.74ZM71.10-34.56L71.10-34.56Q80.38-34.56 85.28-30.21L85.28-30.21L85.28-30.21Q90.18-25.86 90.18-16.90L90.18-16.90L90.18-14.72L64.83-14.72L64.83-14.72Q64.83-11.07 66.46-9.22L66.46-9.22L66.46-9.22Q68.10-7.36 71.62-7.36L71.62-7.36L71.62-7.36Q74.82-7.36 76.32-8.70L76.32-8.70L76.32-8.70Q77.82-10.05 77.82-12.29L77.82-12.29L90.18-12.29L90.18-12.29Q90.18-6.14 85.50-2.69L85.50-2.69L85.50-2.69Q80.83 0.77 71.87 0.77L71.87 0.77L71.87 0.77Q62.46 0.77 57.28-3.62L57.28-3.62L57.28-3.62Q52.10-8 52.10-16.90L52.10-16.90L52.10-16.90Q52.10-25.60 57.15-30.08L57.15-30.08L57.15-30.08Q62.21-34.56 71.10-34.56L71.10-34.56ZM71.62-26.43L71.62-26.43Q65.60-26.43 64.90-20.74L64.90-20.74L77.31-20.74L77.31-20.74Q77.31-23.36 75.81-24.90L75.81-24.90L75.81-24.90Q74.30-26.43 71.62-26.43L71.62-26.43ZM111.68-33.79L118.85-33.79L118.85-25.15L111.68-25.15L111.68-12.29L111.68-12.29Q111.68-9.98 112.45-8.93L112.45-8.93L112.45-8.93Q113.22-7.87 115.26-7.87L115.26-7.87L118.85-7.87L118.85-0.38L118.85-0.38Q117.31 0.13 114.88 0.45L114.88 0.45L114.88 0.45Q112.45 0.77 110.66 0.77L110.66 0.77L110.66 0.77Q105.02 0.77 101.98-1.28L101.98-1.28L101.98-1.28Q98.94-3.33 98.94-8.26L98.94-8.26L98.94-25.15L94.21-25.15L94.21-33.79L99.46-33.79L102.21-44.03L111.68-44.03L111.68-33.79ZM137.47-30.27L137.47-30.27Q139.52-32.32 142.27-33.44L142.27-33.44L142.27-33.44Q145.02-34.56 148.03-34.56L148.03-34.56L148.03-34.56Q153.92-34.56 156.86-31.30L156.86-31.30L156.86-31.30Q159.81-28.03 159.81-21.89L159.81-21.89L159.81 0L147.07 0L147.07-20.35L147.07-20.35Q147.07-22.53 145.95-23.84L145.95-23.84L145.95-23.84Q144.83-25.15 142.78-25.15L142.78-25.15L142.78-25.15Q140.42-25.15 138.94-23.62L138.94-23.62L138.94-23.62Q137.47-22.08 137.47-19.84L137.47-19.84L137.47 0L124.74 0L124.74-46.40L137.47-46.40L137.47-30.27ZM184.90-34.56L184.90-34.56Q194.18-34.56 199.07-30.21L199.07-30.21L199.07-30.21Q203.97-25.86 203.97-16.90L203.97-16.90L203.97-14.72L178.62-14.72L178.62-14.72Q178.62-11.07 180.26-9.22L180.26-9.22L180.26-9.22Q181.89-7.36 185.41-7.36L185.41-7.36L185.41-7.36Q188.61-7.36 190.11-8.70L190.11-8.70L190.11-8.70Q191.62-10.05 191.62-12.29L191.62-12.29L203.97-12.29L203.97-12.29Q203.97-6.14 199.30-2.69L199.30-2.69L199.30-2.69Q194.62 0.77 185.66 0.77L185.66 0.77L185.66 0.77Q176.26 0.77 171.07-3.62L171.07-3.62L171.07-3.62Q165.89-8 165.89-16.90L165.89-16.90L165.89-16.90Q165.89-25.60 170.94-30.08L170.94-30.08L170.94-30.08Q176-34.56 184.90-34.56L184.90-34.56ZM185.41-26.43L185.41-26.43Q179.39-26.43 178.69-20.74L178.69-20.74L191.10-20.74L191.10-20.74Q191.10-23.36 189.60-24.90L189.60-24.90L189.60-24.90Q188.10-26.43 185.41-26.43L185.41-26.43ZM230.66-34.62L230.66-34.62Q232.13-34.62 233.28-34.27L233.28-34.27L233.28-34.27Q234.43-33.92 234.43-33.86L234.43-33.86L234.43-23.17L230.34-23.17L230.34-23.17Q226.37-23.17 224.61-21.12L224.61-21.12L224.61-21.12Q222.85-19.07 222.85-15.04L222.85-15.04L222.85 0L210.11 0L210.11-33.79L220.54-33.79L221.38-28.67L221.38-28.67Q222.53-31.62 225.02-33.12L225.02-33.12L225.02-33.12Q227.52-34.62 230.66-34.62L230.66-34.62Z" fill="#11d5ff"></path></g></g><style>text {
  font-size: 64px;
  font-family: Arial Black;
  dominant-baseline: central;
  text-anchor: middle;
}</style></svg>
