<svg width="588" height="167" viewBox="0 0 588 167" fill="none" xmlns="http://www.w3.org/2000/svg">
<path d="M0 83.5C0 12.525 12.525 0 83.5 0C154.475 0 167 12.525 167 83.5C167 154.475 154.475 167 83.5 167C12.525 167 0 154.475 0 83.5Z" fill="#1CA0F1"/>
<circle opacity="0.3" cx="84" cy="58" r="30" fill="white"/>
<circle opacity="0.3" cx="84" cy="108" r="30" fill="white"/>
<circle opacity="0.3" cx="106" cy="96" r="30" fill="white"/>
<circle opacity="0.3" cx="62" cy="96" r="30" fill="white"/>
<circle opacity="0.3" cx="106" cy="70" r="30" fill="white"/>
<circle opacity="0.3" cx="62" cy="70" r="30" fill="white"/>
<path d="M267.308 126H287.408L251.228 30.994H229.788L193.34 126H212.904L220.81 104.292H259.402L267.308 126ZM240.106 51.496L253.238 87.408H226.974L240.106 51.496Z" fill="#424B55"/>
<path d="M305.218 85.532C305.62 79.502 310.712 72.534 319.958 72.534C330.142 72.534 334.43 78.966 334.698 85.532H305.218ZM336.44 102.684C334.296 108.58 329.74 112.734 321.432 112.734C312.588 112.734 305.218 106.436 304.816 97.726H351.984C351.984 97.458 352.252 94.778 352.252 92.232C352.252 71.06 340.058 58.062 319.69 58.062C302.806 58.062 287.262 71.73 287.262 92.768C287.262 115.012 303.208 128.01 321.298 128.01C337.512 128.01 347.964 118.496 351.314 107.106L336.44 102.684Z" fill="#424B55"/>
<path d="M383.573 40.374H367.493V49.62C367.493 55.516 364.277 60.072 357.309 60.072H353.959V75.884H365.885V106.57C365.885 119.3 373.925 126.938 386.789 126.938C392.015 126.938 395.231 126 396.839 125.33V110.59C395.901 110.858 393.489 111.126 391.345 111.126C386.253 111.126 383.573 109.25 383.573 103.488V75.884H396.839V60.072H383.573V40.374Z" fill="#424B55"/>
<path d="M421.838 87.274C422.24 80.038 426.662 74.41 434.166 74.41C442.742 74.41 446.36 80.172 446.36 87.542V126H464.182V84.46C464.182 69.988 456.41 58.33 439.66 58.33C433.362 58.33 426.126 60.474 421.838 65.566V28.984H404.016V126H421.838V87.274Z" fill="#424B55"/>
<path d="M490.578 85.532C490.98 79.502 496.072 72.534 505.318 72.534C515.502 72.534 519.79 78.966 520.058 85.532H490.578ZM521.8 102.684C519.656 108.58 515.1 112.734 506.792 112.734C497.948 112.734 490.578 106.436 490.176 97.726H537.344C537.344 97.458 537.612 94.778 537.612 92.232C537.612 71.06 525.418 58.062 505.05 58.062C488.166 58.062 472.622 71.73 472.622 92.768C472.622 115.012 488.568 128.01 506.658 128.01C522.872 128.01 533.324 118.496 536.674 107.106L521.8 102.684Z" fill="#424B55"/>
<path d="M587.157 59.804C585.817 59.67 584.477 59.536 583.003 59.536C577.375 59.536 568.263 61.144 564.243 69.854V60.072H546.957V126H564.779V95.85C564.779 81.646 572.685 77.224 581.797 77.224C583.405 77.224 585.147 77.358 587.157 77.76V59.804Z" fill="#424B55"/>
</svg>
